<svg xmlns="http://www.w3.org/2000/svg" width="24.873" height="24.873" viewBox="0 0 24.873 24.873"><path d="M10.354,46.491c0,1.072-.777,1.41-1.732,1.41h-2.5V44.964H8.672c1.033.006,1.682.433,1.682,1.527Zm-.428-4.569c0-.983-.761-1.216-1.6-1.216h-2.2v2.487H8.495C9.333,43.193,9.927,42.826,9.927,41.921Zm7.345,1.288a1.655,1.655,0,0,0-1.76,1.649h3.453A1.582,1.582,0,0,0,17.272,43.209Zm7.6-8.545V54.208a2.666,2.666,0,0,1-2.665,2.665H2.665A2.666,2.666,0,0,1,0,54.208V34.665A2.666,2.666,0,0,1,2.665,32H22.208A2.666,2.666,0,0,1,24.873,34.665Zm-9.788,5.83H19.4V39.445H15.085ZM12.7,46.618a2.76,2.76,0,0,0-1.943-2.865A2.073,2.073,0,0,0,12.209,41.7c0-2.121-1.582-2.637-3.409-2.637H3.775v10.66H8.944C10.882,49.711,12.7,48.784,12.7,46.618Zm8.4-.822c0-2.282-1.338-4.186-3.753-4.186A3.875,3.875,0,0,0,13.4,45.7a3.761,3.761,0,0,0,3.947,4.053,3.442,3.442,0,0,0,3.614-2.6H19.088a1.756,1.756,0,0,1-1.677,1,1.742,1.742,0,0,1-1.893-1.96h5.563c.006-.128.017-.266.017-.4Z" transform="translate(0 -32)" fill="#fff"/></svg>