<svg xmlns="http://www.w3.org/2000/svg" xmlns:xlink="http://www.w3.org/1999/xlink" width="19.224" height="19.312" viewBox="0 0 19.224 19.312"><defs><linearGradient id="a" x1="0.64" y1="-1.62" x2="0.654" y2="-1.62" gradientUnits="objectBoundingBox"><stop offset="0" stop-color="#f9f9f9"/><stop offset="1" stop-color="#fff"/></linearGradient></defs><g transform="translate(7.267 -18.492)"><path d="M-1.957,34.739l.291.172A7.945,7.945,0,0,0,2.382,36.02h0a7.966,7.966,0,0,0,7.955-7.953A7.9,7.9,0,0,0,8.013,22.44,7.956,7.956,0,0,0-5.57,28.061a7.931,7.931,0,0,0,1.216,4.232l.189.3-.8,2.935ZM-7.267,37.8l1.358-4.958A9.55,9.55,0,0,1-7.186,28.06,9.572,9.572,0,0,1,9.156,21.3a9.511,9.511,0,0,1,2.8,6.77,9.585,9.585,0,0,1-9.572,9.569h0a9.563,9.563,0,0,1-4.574-1.165Z" transform="translate(0 0)" fill="#fff"/><path d="M-7.186,28.062a9.551,9.551,0,0,0,1.278,4.784L-7.267,37.8l5.074-1.33a9.566,9.566,0,0,0,4.574,1.165h0a9.585,9.585,0,0,0,9.572-9.569,9.51,9.51,0,0,0-2.8-6.77A9.572,9.572,0,0,0-7.186,28.061M-4.165,32.6l-.189-.3A7.932,7.932,0,0,1-5.57,28.062a7.956,7.956,0,0,1,13.583-5.62,7.9,7.9,0,0,1,2.328,5.626,7.966,7.966,0,0,1-7.956,7.953h0a7.946,7.946,0,0,1-4.049-1.109l-.291-.172-3.011.789Zm6.55,5.042h0" transform="translate(0 0.001)" fill="url(#a)"/><path d="M-1.965,21.955c-.179-.4-.368-.406-.538-.413-.139-.006-.3-.006-.458-.006a.878.878,0,0,0-.638.3,2.681,2.681,0,0,0-.837,1.995A4.653,4.653,0,0,0-3.46,26.3a9.818,9.818,0,0,0,4.085,3.61c2.02.8,2.431.638,2.87.6A2.415,2.415,0,0,0,5.11,29.375a2,2,0,0,0,.14-1.137c-.06-.1-.219-.16-.458-.279s-1.415-.7-1.634-.778-.379-.12-.538.12-.617.778-.757.937-.279.18-.518.06A6.544,6.544,0,0,1-.58,27.111a7.205,7.205,0,0,1-1.331-1.656c-.139-.239-.015-.369.105-.488s.239-.279.359-.419a1.639,1.639,0,0,0,.239-.4.44.44,0,0,0-.02-.419c-.06-.12-.525-1.3-.737-1.775" transform="translate(1.958 2.107)" fill="#fff" fill-rule="evenodd"/></g></svg>