<svg xmlns="http://www.w3.org/2000/svg" width="293.944" height="239.493" viewBox="0 0 293.944 239.493"><g transform="translate(-264.084 -159.124)"><g transform="translate(264.084 159.123)"><path d="M339.045,277.713c1.059,4.824,3.92,7.236,8.894,7.236h17.035c4.974,0,7.841-2.412,8.894-7.236l20.051-94.664c.754-4.07-1.508-7.236-5.878-7.236H372.209c-4.974,0-7.685,2.562-8.439,7.536l-8.14,58.489L339.8,183.049c-1.353-4.824-4.519-7.236-9.343-7.236H318.85c-4.675,0-7.691,2.562-9.05,7.536l-12.964,58.489-9.8-58.788q-1.356-7.236-8.589-7.236H261.116c-4.375,0-6.787,3.316-5.734,7.087l22.008,94.969c1.059,4.669,4.07,7.081,9.05,7.081h16.579c4.674,0,7.685-2.412,9.044-7.386l13.868-62.1Z" transform="translate(-255.136 -46.102)" fill="#1d2951" fill-rule="evenodd"/><path d="M339.544,243.5c4.674,0,7.386-3.016,7.386-7.386V225.109c0-4.369-2.712-7.386-7.386-7.386H310.3V201.748h39.5c4.669,0,7.386-3.016,7.386-7.386V183.206c0-4.369-2.717-7.386-7.386-7.386H287.687c-4.674,0-7.386,3.166-7.386,7.386V277.57c0,4.22,2.712,7.386,7.386,7.386H349.8c4.669,0,7.386-3.017,7.386-7.386V266.564c0-4.369-2.717-7.386-7.386-7.386H310.3V243.5Z" transform="translate(-135.434 -46.068)" fill="#1d2951" fill-rule="evenodd"/><g transform="translate(0.044)"><path d="M317.833,286.06a7.123,7.123,0,0,0,7.386-7.386v-41.3c0-21.4,7.541-32.105,22.463-32.105a48.234,48.234,0,0,1,5.728.3c4.07.449,4.974-.3,4.974-4.375V180.539c0-2.861-.754-3.615-2.711-4.22l-4.974-.6c-13.419.3-20.955,7.386-24.57,14.323-2.867,4.974-3.166,6.327-3.316,7.536h-.91V184.31c0-4.22-2.861-7.386-7.536-7.386H302.612c-4.675,0-7.386,3.166-7.386,7.386v94.365c0,4.22,2.711,7.386,7.386,7.386Z" transform="translate(-64.484 -46.568)" fill="#1d2951" fill-rule="evenodd"/><path d="M295.6,239.811c-7.99,0-12.814-4.8-12.964-9.476-.15-3.16-2.262-4.5-6.332-3.891l-15.071,2.539c-5.429,1.053-6.632,2.257-5.883,7.835,1.059,6.01,3.771,11.882,9.349,18.065,5.878,6.033,16.43,10.253,30.148,10.253,29.394,0,42.663-12.815,42.663-31.029,0-39.871-52.162-34.143-52.162-46.63,0-5.878,3.471-8.871,10.252-8.871,7.99,0,13.264,5.25,13.419,9.32.15,3.621,2.861,4.951,8.14,4.2l13.413-2.234a7.061,7.061,0,0,0,6.033-8.29c-.754-6.758-4.226-12.941-10.4-18.819-6.033-5.878-17.339-9.5-31.357-9.5-12.815,0-22.613,3.316-29.394,10.1s-10.1,14.467-10.1,23.338c0,12.636,5.734,21.956,13.419,26.331a89.869,89.869,0,0,0,12.51,5.55c12.964,4.674,25.928,5.129,25.928,12.486C307.2,236.967,303.282,239.811,295.6,239.811Z" transform="translate(-255.144 -153.281)" fill="#1d2951" fill-rule="evenodd"/><path d="M357.625,209.663c0-38.743-13.563-56.382-43.561-56.382S270.5,170.92,270.5,209.663c0,38.588,13.419,55.173,43.567,55.173s43.561-16.585,43.561-55.173Zm-56.825,0c0-20.955,4.064-29.7,13.264-29.7s13.264,8.745,13.264,29.7c0,20.045-3.765,28.49-13.264,28.49S300.8,229.708,300.8,209.663Z" transform="translate(-182.113 -153.281)" fill="#1d2951" fill-rule="evenodd"/></g></g></g></svg>