<svg xmlns="http://www.w3.org/2000/svg" width="673.903" height="661.456" viewBox="0 0 673.903 661.456"><g transform="matrix(-0.309, -0.951, 0.951, -0.309, -535.844, 860.803)"><g transform="matrix(-0.391, 0.921, -0.921, -0.391, 636.017, 826.404)"><path d="M622.156,302.761c-1.217,67.246-28.4,153.764-77.085,217.461-39.354,51.525-92.806,88.242-157.821,88.242a171.678,171.678,0,0,1-85.4-22.517,163.753,163.753,0,0,1-61.262-61.567A354.51,354.51,0,0,0,175.774,440.8a374.077,374.077,0,0,0-87.836-62.175,158.74,158.74,0,0,1-64.2-60.958A172.664,172.664,0,0,1,0,229.733c0-64.609,36.514-117.555,87.938-156.3C150.316,26.371,235.312.2,303.268,0c2.941,0,5.883,0,8.824.1,88.749,1.521,166.037,31.24,221.213,82.562,55.379,51.424,88.546,124.553,88.851,212.592Z" transform="translate(0 0)" fill="none" stroke="#f5d253" stroke-miterlimit="10" stroke-width="1"/><path d="M378.02,183.787c-.71,40.774-17.243,93.212-46.758,131.856-24.038,31.443-56.6,53.858-96.458,53.858a105.208,105.208,0,0,1-52.337-13.794,99.839,99.839,0,0,1-37.63-37.832,208.83,208.83,0,0,0-38.542-49.6,221.124,221.124,0,0,0-52.235-36.92,97.991,97.991,0,0,1-39.455-37.427A106.046,106.046,0,0,1,0,140.071c0-39.557,22.314-71.912,53.655-95.545C91.589,15.924,143.114.1,184.294,0h5.376c53.757.913,100.718,18.967,134.189,50.207,33.674,31.24,53.858,75.665,54.061,129.219A20.57,20.57,0,0,1,378.02,183.787Z" transform="translate(72.419 136.116)" fill="none" stroke="#f5d253" stroke-miterlimit="10" stroke-width="1"/><path d="M316.454,154.271c-.609,34.08-14.4,78-39.05,110.353C257.22,291,229.835,309.861,196.364,309.861a87.8,87.8,0,0,1-44.02-11.664A84.426,84.426,0,0,1,120.7,266.349a175.275,175.275,0,0,0-31.95-41.18,183.878,183.878,0,0,0-43.31-30.631,81.414,81.414,0,0,1-33.167-31.544A89.51,89.51,0,0,1,0,117.656C0,84.388,18.663,57.205,45.034,37.325h0C76.781,13.388,119.887.2,154.373,0h4.463c45.034.811,84.286,15.924,112.382,41.991,28.2,26.168,45.135,63.392,45.237,108.223Z" transform="translate(185.714 116.337)" fill="none" stroke="#f5d253" stroke-miterlimit="10" stroke-width="1"/><path d="M500.139,243.325c-.913,53.959-22.821,123.539-61.972,174.658-31.747,41.484-74.752,71.1-127.089,71.1a138.973,138.973,0,0,1-68.869-18.156,130.592,130.592,0,0,1-49.4-49.7,283.168,283.168,0,0,0-51.728-66.638A295.631,295.631,0,0,0,71,305.094,128.7,128.7,0,0,1,19.17,255.9,139.216,139.216,0,0,1,0,185C0,132.971,29.414,90.271,70.8,59.031h0C121,21.2,189.264.2,243.832,0h7.1c71.2,1.217,133.377,25.154,177.7,66.435,44.527,41.382,71.2,100.109,71.4,170.905A58.945,58.945,0,0,1,500.139,243.325Z" transform="translate(93.82 43.31)" fill="none" stroke="#f5d253" stroke-miterlimit="10" stroke-width="1"/></g></g></svg>