<svg id="ecyblu4tdymt1" xmlns="http://www.w3.org/2000/svg" xmlns:xlink="http://www.w3.org/1999/xlink" viewBox="0 0 500 500" shape-rendering="geometricPrecision" text-rendering="geometricPrecision"><g id="ecyblu4tdymt2"><g id="ecyblu4tdymt3"><path id="ecyblu4tdymt4" d="M484.400000,248.820000C482.800000,340.230000,417.220000,479.150000,308.400000,479.150000C261.980000,479.150000,220.610000,454.550000,199.510000,416.750000C172.250000,367.920000,130.720000,328.930000,80.750000,303.430000C41.180000,283.240000,15.550000,240.510000,15.550000,192.940000C15.550000,85.930000,150.970000,21.190000,244.070000,20.850000C383.250000,20.350000,486.820000,110.780000,484.400000,248.820000Z" clip-rule="evenodd" fill="rgb(246,211,83)" fill-rule="evenodd" stroke="none" stroke-width="1"/><g id="ecyblu4tdymt5"><g id="ecyblu4tdymt6"><path id="ecyblu4tdymt7" d="M372.020000,321.090000C376.110000,321.090000,378.920000,318.130000,378.920000,314.190000L378.920000,275.580000C378.920000,255.570000,385.960000,245.570000,399.910000,245.570000C402.310000,245.570000,404.140000,245.710000,405.260000,245.850000C409.060000,246.270000,409.910000,245.570000,409.910000,241.760000L409.910000,222.460000C409.910000,219.780000,409.210000,219.080000,407.370000,218.510000L402.720000,217.950000C390.180000,218.230000,383.130000,224.850000,379.750000,231.340000C377.070000,235.990000,376.790000,237.260000,376.650000,238.380000L375.800000,238.380000L375.800000,225.980000C375.800000,222.040000,373.120000,219.080000,368.760000,219.080000L357.770000,219.080000C353.400000,219.080000,350.870000,222.040000,350.870000,225.980000L350.870000,314.190000C350.870000,318.130000,353.410000,321.090000,357.770000,321.090000L372.020000,321.090000Z" clip-rule="evenodd" fill="rgb(235,92,121)" fill-rule="evenodd" stroke="none" stroke-width="1"/><path id="ecyblu4tdymt8" d="M210.970000,313.770000C211.960000,318.280000,214.630000,320.530000,219.280000,320.530000L235.200000,320.530000C239.850000,320.530000,242.530000,318.280000,243.510000,313.770000L262.250000,225.280000C262.950000,221.480000,260.840000,218.520000,256.760000,218.520000L241.960000,218.520000C237.310000,218.520000,234.770000,220.920000,234.070000,225.570000L226.460000,280.240000L211.660000,225.290000C210.390000,220.780000,207.430000,218.530000,202.920000,218.530000L192.070000,218.530000C187.700000,218.530000,184.880000,220.930000,183.620000,225.580000L171.500000,280.250000L162.340000,225.300000C161.500000,220.790000,158.820000,218.540000,154.310000,218.540000L138.110000,218.540000C134.020000,218.540000,131.770000,221.640000,132.750000,225.160000L153.320000,313.930000C154.310000,318.300000,157.120000,320.550000,161.770000,320.550000L177.270000,320.550000C181.640000,320.550000,184.460000,318.300000,185.720000,313.650000L198.680000,255.600000L210.970000,313.770000Z" clip-rule="evenodd" fill="rgb(235,92,121)" fill-rule="evenodd" stroke="none" stroke-width="1"/><path id="ecyblu4tdymt9" d="M306.220000,296.710000C297.630000,296.710000,293.680000,290.230000,293.120000,274.450000L337.510000,274.450000C341.460000,274.450000,342.580000,273.320000,342.440000,270.500000L342.300000,266.270000C341.740000,248.370000,338.640000,235.840000,333,228.510000C327.500000,221.040000,318.350000,217.380000,305.520000,217.380000C277.480000,217.380000,264.800000,233.870000,264.800000,270.080000C264.800000,306.150000,277.340000,321.650000,305.520000,321.650000C316.370000,321.650000,324.960000,318.970000,331.020000,313.480000C337.220000,307.980000,340.740000,301.080000,341.730000,293.050000C342.290000,287.980000,340.460000,286.150000,335.950000,285.580000L322.560000,284.030000C319.460000,283.610000,317.910000,284.590000,317.910000,286.990000C317.920000,292.210000,313.970000,296.710000,306.220000,296.710000L306.220000,296.710000ZM293.680000,256.980000C294.950000,244.720000,298.750000,239.510000,305.520000,239.510000C313.130000,239.510000,317.210000,245.290000,317.920000,256.980000L293.680000,256.980000Z" clip-rule="evenodd" fill="rgb(235,92,121)" fill-rule="evenodd" stroke="none" stroke-width="1"/></g><g id="ecyblu4tdymt10"><path id="ecyblu4tdymt11" d="M170.390000,177.900000C162.920000,177.900000,158.410000,173.410000,158.270000,169.050000C158.130000,166.090000,156.160000,164.850000,152.350000,165.410000L138.260000,167.780000C133.190000,168.770000,132.060000,169.890000,132.770000,175.110000C133.760000,180.720000,136.290000,186.220000,141.510000,192C147.010000,197.640000,156.870000,201.580000,169.690000,201.580000C197.170000,201.580000,209.570000,189.600000,209.570000,172.580000C209.570000,135.310000,160.820000,140.660000,160.820000,128.990000C160.820000,123.490000,164.060000,120.700000,170.400000,120.700000C177.870000,120.700000,182.800000,125.610000,182.940000,129.410000C183.080000,132.790000,185.620000,134.040000,190.550000,133.330000L203.090000,131.240000C207.180000,130.680000,209.290000,127.010000,208.730000,123.490000C208.030000,117.170000,204.780000,111.400000,199.010000,105.900000C193.370000,100.410000,182.800000,97.020000,169.700000,97.020000C157.720000,97.020000,148.560000,100.120000,142.220000,106.460000C135.880000,112.800000,132.780000,119.990000,132.780000,128.280000C132.780000,140.090000,138.130000,148.800000,145.320000,152.890000C148.840000,154.840000,152.790000,156.530000,157.020000,158.080000C169.140000,162.450000,181.260000,162.870000,181.260000,169.750000C181.240000,175.250000,177.570000,177.900000,170.390000,177.900000Z" clip-rule="evenodd" fill="rgb(235,92,121)" fill-rule="evenodd" stroke="none" stroke-width="1"/><path id="ecyblu4tdymt12" d="M296.640000,149.720000C296.640000,113.510000,283.960000,97.020000,255.920000,97.020000C227.880000,97.020000,215.200000,113.510000,215.200000,149.720000C215.200000,185.790000,227.740000,201.290000,255.920000,201.290000C284.100000,201.290000,296.640000,185.790000,296.640000,149.720000L296.640000,149.720000ZM243.510000,149.720000C243.510000,130.130000,247.310000,121.960000,255.910000,121.960000C264.510000,121.960000,268.310000,130.130000,268.310000,149.720000C268.310000,168.460000,264.790000,176.350000,255.910000,176.350000C247.040000,176.350000,243.510000,168.460000,243.510000,149.720000Z" clip-rule="evenodd" fill="rgb(235,92,121)" fill-rule="evenodd" stroke="none" stroke-width="1"/></g></g></g></g><g id="ecyblu4tdymt13" display="none"><g id="ecyblu4tdymt14"><path id="ecyblu4tdymt15" d="M484.400000,251.180000C482.800000,159.770000,417.220000,20.850000,308.400000,20.850000C261.980000,20.850000,220.610000,45.450000,199.510000,83.250000C172.250000,132.080000,130.720000,171.070000,80.750000,196.570000C41.180000,216.760000,15.550000,259.490000,15.550000,307.060000C15.550000,414.070000,150.970000,478.810000,244.070000,479.150000C383.250000,479.650000,486.820000,389.220000,484.400000,251.180000Z" clip-rule="evenodd" fill="none" fill-rule="evenodd" stroke="rgb(235,87,88)" stroke-width="1" stroke-miterlimit="10"/><g id="ecyblu4tdymt16"><g id="ecyblu4tdymt17"><path id="ecyblu4tdymt18" d="M276.110000,248.230000C268.640000,248.230000,264.130000,243.740000,263.990000,239.380000C263.850000,236.420000,261.880000,235.180000,258.070000,235.740000L243.980000,238.110000C238.910000,239.100000,237.780000,240.220000,238.490000,245.440000C239.480000,251.050000,242.010000,256.550000,247.230000,262.330000C252.730000,267.970000,262.590000,271.910000,275.410000,271.910000C302.890000,271.910000,315.290000,259.930000,315.290000,242.910000C315.290000,205.640000,266.540000,210.990000,266.540000,199.320000C266.540000,193.830000,269.780000,191.030000,276.120000,191.030000C283.590000,191.030000,288.520000,195.940000,288.660000,199.740000C288.800000,203.120000,291.340000,204.370000,296.270000,203.660000L308.810000,201.570000C312.900000,201.010000,315.010000,197.340000,314.450000,193.820000C313.750000,187.500000,310.500000,181.730000,304.730000,176.230000C299.090000,170.730000,288.530000,167.350000,275.420000,167.350000C263.440000,167.350000,254.280000,170.450000,247.940000,176.790000C241.600000,183.130000,238.500000,190.320000,238.500000,198.610000C238.500000,210.420000,243.850000,219.130000,251.040000,223.220000C254.560000,225.170000,258.510000,226.860000,262.730000,228.410000C274.850000,232.780000,286.970000,233.200000,286.970000,240.080000C286.960000,245.570000,283.290000,248.230000,276.110000,248.230000Z" clip-rule="evenodd" fill="none" fill-rule="evenodd" stroke="rgb(235,87,88)" stroke-width="1" stroke-miterlimit="10"/><path id="ecyblu4tdymt19" d="M402.350000,220.050000C402.350000,183.840000,389.670000,167.350000,361.630000,167.350000C333.590000,167.350000,320.910000,183.840000,320.910000,220.050000C320.910000,256.120000,333.450000,271.620000,361.630000,271.620000C389.810000,271.620000,402.350000,256.120000,402.350000,220.050000L402.350000,220.050000ZM349.230000,220.050000C349.230000,200.460000,353.030000,192.290000,361.630000,192.290000C370.230000,192.290000,374.030000,200.460000,374.030000,220.050000C374.030000,238.790000,370.510000,246.680000,361.630000,246.680000C352.760000,246.680000,349.230000,238.790000,349.230000,220.050000Z" clip-rule="evenodd" fill="none" fill-rule="evenodd" stroke="rgb(235,87,88)" stroke-width="1" stroke-miterlimit="10"/></g><path id="ecyblu4tdymt20" d="M203.400000,384.090000C204.390000,388.600000,207.060000,390.850000,211.710000,390.850000L227.630000,390.850000C232.280000,390.850000,234.960000,388.600000,235.940000,384.090000L254.680000,295.600000C255.380000,291.800000,253.270000,288.840000,249.180000,288.840000L234.400000,288.840000C229.750000,288.840000,227.210000,291.230000,226.510000,295.890000L218.900000,350.560000L204.110000,295.610000C202.840000,291.100000,199.880000,288.850000,195.370000,288.850000L184.520000,288.850000C180.150000,288.850000,177.330000,291.240000,176.070000,295.900000L163.950000,350.570000L154.790000,295.620000C153.950000,291.110000,151.270000,288.860000,146.760000,288.860000L130.550000,288.860000C126.460000,288.860000,124.210000,291.960000,125.200000,295.480000L145.770000,384.250000C146.760000,388.620000,149.570000,390.870000,154.220000,390.870000L169.720000,390.870000C174.090000,390.870000,176.910000,388.620000,178.170000,383.970000L191.130000,325.920000L203.400000,384.090000Z" clip-rule="evenodd" fill="none" fill-rule="evenodd" stroke="rgb(235,87,88)" stroke-width="1" stroke-miterlimit="10"/><path id="ecyblu4tdymt21" d="M298.660000,367.040000C290.060000,367.040000,286.120000,360.560000,285.560000,344.780000L329.950000,344.780000C333.890000,344.780000,335.020000,343.650000,334.880000,340.840000L334.740000,336.610000C334.180000,318.710000,331.080000,306.170000,325.440000,298.850000C319.940000,291.380000,310.780000,287.720000,297.960000,287.720000C269.920000,287.720000,257.240000,304.210000,257.240000,340.420000C257.240000,376.490000,269.780000,391.990000,297.960000,391.990000C308.810000,391.990000,317.400000,389.310000,323.460000,383.820000C329.660000,378.320000,333.180000,371.420000,334.170000,363.390000C334.730000,358.320000,332.900000,356.490000,328.390000,355.920000L315,354.360000C311.900000,353.940000,310.350000,354.920000,310.350000,357.320000C310.350000,362.530000,306.400000,367.040000,298.660000,367.040000L298.660000,367.040000ZM286.120000,327.310000C287.390000,315.050000,291.190000,309.840000,297.950000,309.840000C305.560000,309.840000,309.650000,315.620000,310.350000,327.310000L286.120000,327.310000Z" clip-rule="evenodd" fill="none" fill-rule="evenodd" stroke="rgb(235,87,88)" stroke-width="1" stroke-miterlimit="10"/><path id="ecyblu4tdymt22" d="M364.450000,391.420000C368.540000,391.420000,371.350000,388.460000,371.350000,384.520000L371.350000,345.910000C371.350000,325.900000,378.400000,315.900000,392.350000,315.900000C394.750000,315.900000,396.580000,316.040000,397.710000,316.180000C401.510000,316.600000,402.360000,315.900000,402.360000,312.090000L402.360000,292.790000C402.360000,290.110000,401.660000,289.410000,399.820000,288.840000L395.170000,288.280000C382.630000,288.560000,375.580000,295.180000,372.200000,301.660000C369.520000,306.310000,369.240000,307.580000,369.100000,308.710000L368.250000,308.710000L368.250000,296.310000C368.250000,292.370000,365.570000,289.410000,361.200000,289.410000L350.210000,289.410000C345.840000,289.410000,343.300000,292.370000,343.300000,296.310000L343.300000,384.520000C343.300000,388.460000,345.840000,391.420000,350.210000,391.420000L364.450000,391.420000Z" clip-rule="evenodd" fill="none" fill-rule="evenodd" stroke="rgb(235,87,88)" stroke-width="1" stroke-miterlimit="10"/></g></g></g><g id="ecyblu4tdymt23" display="none"><g id="ecyblu4tdymt24"><path id="ecyblu4tdymt25" d="M15.600000,248.820000C17.200000,340.230000,82.780000,479.150000,191.600000,479.150000C238.020000,479.150000,279.390000,454.550000,300.490000,416.750000C327.750000,367.920000,369.280000,328.930000,419.250000,303.430000C458.820000,283.240000,484.450000,240.510000,484.450000,192.940000C484.450000,85.930000,349.030000,21.190000,255.930000,20.850000C116.750000,20.350000,13.180000,110.780000,15.600000,248.820000Z" clip-rule="evenodd" fill="none" fill-rule="evenodd" stroke="rgb(104,180,46)" stroke-width="1" stroke-miterlimit="10"/><g id="ecyblu4tdymt26"><g id="ecyblu4tdymt27"><path id="ecyblu4tdymt28" d="M213.350000,177.900000C205.880000,177.900000,201.370000,173.410000,201.230000,169.050000C201.090000,166.090000,199.120000,164.850000,195.310000,165.410000L181.220000,167.780000C176.150000,168.770000,175.020000,169.890000,175.720000,175.110000C176.710000,180.720000,179.240000,186.220000,184.460000,192C189.960000,197.640000,199.820000,201.580000,212.640000,201.580000C240.120000,201.580000,252.510000,189.600000,252.510000,172.580000C252.510000,135.310000,203.760000,140.670000,203.760000,128.990000C203.760000,123.490000,207,120.700000,213.340000,120.700000C220.810000,120.700000,225.740000,125.610000,225.880000,129.410000C226.020000,132.790000,228.560000,134.040000,233.490000,133.330000L246.030000,131.240000C250.120000,130.680000,252.230000,127.010000,251.670000,123.490000C250.970000,117.170000,247.730000,111.400000,241.950000,105.900000C236.310000,100.410000,225.750000,97.020000,212.640000,97.020000C200.660000,97.020000,191.500000,100.120000,185.160000,106.460000C178.820000,112.800000,175.720000,119.990000,175.720000,128.280000C175.720000,140.090000,181.070000,148.800000,188.260000,152.890000C191.780000,154.840000,195.730000,156.530000,199.960000,158.080000C212.080000,162.450000,224.200000,162.870000,224.200000,169.750000C224.200000,175.250000,220.530000,177.900000,213.350000,177.900000Z" clip-rule="evenodd" fill="none" fill-rule="evenodd" stroke="rgb(104,180,46)" stroke-width="1" stroke-miterlimit="10"/><path id="ecyblu4tdymt29" d="M339.590000,149.720000C339.590000,113.510000,326.910000,97.020000,298.870000,97.020000C270.830000,97.020000,258.150000,113.510000,258.150000,149.720000C258.150000,185.790000,270.690000,201.290000,298.870000,201.290000C327.050000,201.290000,339.590000,185.790000,339.590000,149.720000L339.590000,149.720000ZM286.470000,149.720000C286.470000,130.130000,290.280000,121.960000,298.870000,121.960000C307.470000,121.960000,311.270000,130.130000,311.270000,149.720000C311.270000,168.460000,307.750000,176.350000,298.870000,176.350000C289.990000,176.350000,286.470000,168.460000,286.470000,149.720000Z" clip-rule="evenodd" fill="none" fill-rule="evenodd" stroke="rgb(104,180,46)" stroke-width="1" stroke-miterlimit="10"/></g><path id="ecyblu4tdymt30" d="M140.640000,313.760000C141.630000,318.270000,144.300000,320.520000,148.950000,320.520000L164.870000,320.520000C169.520000,320.520000,172.200000,318.270000,173.180000,313.760000L191.920000,225.270000C192.620000,221.470000,190.510000,218.510000,186.430000,218.510000L171.630000,218.510000C166.980000,218.510000,164.440000,220.910000,163.740000,225.560000L156.130000,280.230000L141.330000,225.280000C140.060000,220.770000,137.100000,218.520000,132.590000,218.520000L121.740000,218.520000C117.370000,218.520000,114.550000,220.920000,113.280000,225.570000L101.160000,280.240000L92,225.290000C91.150000,220.780000,88.480000,218.530000,83.970000,218.530000L67.800000,218.530000C63.710000,218.530000,61.460000,221.630000,62.440000,225.150000L83.010000,313.920000C84,318.290000,86.820000,320.540000,91.460000,320.540000L106.960000,320.540000C111.330000,320.540000,114.150000,318.290000,115.410000,313.630000L128.370000,255.580000L140.640000,313.760000Z" clip-rule="evenodd" fill="none" fill-rule="evenodd" stroke="rgb(104,180,46)" stroke-width="1" stroke-miterlimit="10"/><path id="ecyblu4tdymt31" d="M235.890000,296.710000C227.290000,296.710000,223.350000,290.230000,222.790000,274.450000L267.170000,274.450000C271.120000,274.450000,272.240000,273.320000,272.100000,270.500000L271.960000,266.270000C271.400000,248.370000,268.300000,235.830000,262.660000,228.510000C257.160000,221.040000,248.010000,217.380000,235.180000,217.380000C207.140000,217.380000,194.460000,233.870000,194.460000,270.080000C194.460000,306.150000,207,321.650000,235.180000,321.650000C246.030000,321.650000,254.620000,318.970000,260.680000,313.480000C266.880000,307.980000,270.400000,301.080000,271.390000,293.050000C271.950000,287.980000,270.120000,286.150000,265.610000,285.580000L252.220000,284.030000C249.120000,283.610000,247.570000,284.590000,247.570000,286.990000C247.590000,292.210000,243.640000,296.710000,235.890000,296.710000L235.890000,296.710000ZM223.350000,256.980000C224.620000,244.720000,228.420000,239.510000,235.190000,239.510000C242.800000,239.510000,246.880000,245.290000,247.590000,256.980000L223.350000,256.980000Z" clip-rule="evenodd" fill="none" fill-rule="evenodd" stroke="rgb(104,180,46)" stroke-width="1" stroke-miterlimit="10"/><path id="ecyblu4tdymt32" d="M301.690000,321.090000C305.780000,321.090000,308.590000,318.130000,308.590000,314.190000L308.590000,275.580000C308.590000,255.570000,315.640000,245.570000,329.580000,245.570000C331.980000,245.570000,333.810000,245.710000,334.930000,245.850000C338.730000,246.270000,339.580000,245.570000,339.580000,241.760000L339.580000,222.460000C339.580000,219.780000,338.880000,219.080000,337.040000,218.510000L332.390000,217.950000C319.850000,218.230000,312.800000,224.850000,309.420000,231.340000C306.740000,235.990000,306.460000,237.260000,306.320000,238.380000L305.470000,238.380000L305.470000,225.980000C305.470000,222.040000,302.790000,219.080000,298.430000,219.080000L287.440000,219.080000C283.070000,219.080000,280.540000,222.040000,280.540000,225.980000L280.540000,314.190000C280.540000,318.130000,283.080000,321.090000,287.440000,321.090000L301.690000,321.090000Z" clip-rule="evenodd" fill="none" fill-rule="evenodd" stroke="rgb(104,180,46)" stroke-width="1" stroke-miterlimit="10"/></g></g></g><g id="ecyblu4tdymt33" display="none"><g id="ecyblu4tdymt34"><path id="ecyblu4tdymt35" d="M15.600000,251.180000C17.200000,159.770000,82.780000,20.850000,191.600000,20.850000C238.020000,20.850000,279.390000,45.450000,300.490000,83.250000C327.750000,132.080000,369.280000,171.070000,419.250000,196.570000C458.820000,216.760000,484.450000,259.490000,484.450000,307.060000C484.450000,414.070000,349.030000,478.810000,255.930000,479.150000C116.750000,479.650000,13.180000,389.220000,15.600000,251.180000Z" clip-rule="evenodd" fill="none" fill-rule="evenodd" stroke="rgb(46,81,159)" stroke-width="1" stroke-miterlimit="10"/><g id="ecyblu4tdymt36"><g id="ecyblu4tdymt37"><path id="ecyblu4tdymt38" d="M146.950000,248.230000C139.480000,248.230000,134.970000,243.740000,134.830000,239.380000C134.690000,236.420000,132.720000,235.180000,128.910000,235.740000L114.820000,238.110000C109.750000,239.100000,108.620000,240.220000,109.320000,245.440000C110.310000,251.050000,112.840000,256.550000,118.060000,262.330000C123.550000,267.970000,133.420000,271.910000,146.240000,271.910000C173.720000,271.910000,186.110000,259.930000,186.110000,242.910000C186.110000,205.640000,137.360000,211,137.360000,199.320000C137.360000,193.820000,140.600000,191.030000,146.940000,191.030000C154.410000,191.030000,159.340000,195.940000,159.480000,199.740000C159.620000,203.120000,162.160000,204.370000,167.090000,203.660000L179.630000,201.570000C183.720000,201.010000,185.830000,197.340000,185.270000,193.820000C184.570000,187.500000,181.330000,181.730000,175.550000,176.230000C169.910000,170.740000,159.350000,167.350000,146.240000,167.350000C134.260000,167.350000,125.100000,170.450000,118.760000,176.790000C112.420000,183.130000,109.320000,190.320000,109.320000,198.610000C109.320000,210.420000,114.670000,219.130000,121.860000,223.220000C125.380000,225.170000,129.330000,226.860000,133.560000,228.410000C145.680000,232.780000,157.800000,233.200000,157.800000,240.080000C157.800000,245.570000,154.130000,248.230000,146.950000,248.230000Z" clip-rule="evenodd" fill="none" fill-rule="evenodd" stroke="rgb(46,81,159)" stroke-width="1" stroke-miterlimit="10"/><path id="ecyblu4tdymt39" d="M273.190000,220.050000C273.190000,183.840000,260.510000,167.350000,232.470000,167.350000C204.430000,167.350000,191.750000,183.840000,191.750000,220.050000C191.750000,256.120000,204.290000,271.620000,232.470000,271.620000C260.650000,271.620000,273.190000,256.120000,273.190000,220.050000L273.190000,220.050000ZM220.070000,220.050000C220.070000,200.460000,223.870000,192.290000,232.470000,192.290000C241.070000,192.290000,244.870000,200.460000,244.870000,220.050000C244.870000,238.790000,241.350000,246.680000,232.470000,246.680000C223.600000,246.680000,220.070000,238.790000,220.070000,220.050000Z" clip-rule="evenodd" fill="none" fill-rule="evenodd" stroke="rgb(46,81,159)" stroke-width="1" stroke-miterlimit="10"/></g><path id="ecyblu4tdymt40" d="M187.530000,384.090000C188.520000,388.600000,191.190000,390.850000,195.840000,390.850000L211.760000,390.850000C216.410000,390.850000,219.090000,388.600000,220.070000,384.090000L238.810000,295.600000C239.510000,291.800000,237.400000,288.840000,233.310000,288.840000L218.520000,288.840000C213.870000,288.840000,211.330000,291.240000,210.630000,295.890000L203.020000,350.560000L188.230000,295.610000C186.960000,291.100000,184,288.850000,179.490000,288.850000L168.640000,288.850000C164.270000,288.850000,161.450000,291.250000,160.190000,295.900000L148.070000,350.570000L138.910000,295.620000C138.070000,291.110000,135.390000,288.860000,130.880000,288.860000L114.680000,288.860000C110.590000,288.860000,108.340000,291.960000,109.330000,295.480000L129.900000,384.250000C130.890000,388.620000,133.700000,390.870000,138.350000,390.870000L153.850000,390.870000C158.220000,390.870000,161.040000,388.620000,162.300000,383.970000L175.260000,325.920000L187.530000,384.090000Z" clip-rule="evenodd" fill="none" fill-rule="evenodd" stroke="rgb(46,81,159)" stroke-width="1" stroke-miterlimit="10"/><path id="ecyblu4tdymt41" d="M282.780000,367.040000C274.180000,367.040000,270.240000,360.560000,269.680000,344.780000L314.070000,344.780000C318.010000,344.780000,319.140000,343.650000,319,340.830000L318.860000,336.600000C318.300000,318.700000,315.200000,306.160000,309.560000,298.840000C304.060000,291.370000,294.900000,287.710000,282.080000,287.710000C254.040000,287.710000,241.360000,304.200000,241.360000,340.410000C241.360000,376.480000,253.900000,391.980000,282.080000,391.980000C292.930000,391.980000,301.520000,389.300000,307.580000,383.810000C313.780000,378.310000,317.300000,371.410000,318.290000,363.380000C318.850000,358.310000,317.020000,356.480000,312.510000,355.910000L299.130000,354.360000C296.030000,353.940000,294.480000,354.920000,294.480000,357.320000C294.470000,362.530000,290.530000,367.040000,282.780000,367.040000L282.780000,367.040000ZM270.240000,327.310000C271.510000,315.050000,275.310000,309.840000,282.070000,309.840000C289.680000,309.840000,293.760000,315.620000,294.470000,327.310000L270.240000,327.310000Z" clip-rule="evenodd" fill="none" fill-rule="evenodd" stroke="rgb(46,81,159)" stroke-width="1" stroke-miterlimit="10"/><path id="ecyblu4tdymt42" d="M348.570000,391.420000C352.660000,391.420000,355.470000,388.460000,355.470000,384.520000L355.470000,345.910000C355.470000,325.900000,362.520000,315.900000,376.460000,315.900000C378.860000,315.900000,380.690000,316.040000,381.820000,316.180000C385.620000,316.600000,386.470000,315.900000,386.470000,312.100000L386.470000,292.800000C386.470000,290.120000,385.770000,289.420000,383.930000,288.850000L379.280000,288.290000C366.740000,288.570000,359.690000,295.190000,356.310000,301.680000C353.630000,306.330000,353.350000,307.600000,353.210000,308.730000L352.370000,308.730000L352.370000,296.330000C352.370000,292.390000,349.690000,289.430000,345.320000,289.430000L334.330000,289.430000C329.960000,289.430000,327.420000,292.390000,327.420000,296.330000L327.420000,384.540000C327.420000,388.480000,329.960000,391.440000,334.330000,391.440000L348.570000,391.440000Z" clip-rule="evenodd" fill="none" fill-rule="evenodd" stroke="rgb(46,81,159)" stroke-width="1" stroke-miterlimit="10"/></g></g></g><script><![CDATA[!function(t,n){"object"==typeof exports&&"undefined"!=typeof module?module.exports=n():"function"==typeof define&&define.amd?define(n):(t=t||self).__SVGATOR_PLAYER__=n()}(this,(function(){"use strict";function t(n){return(t="function"==typeof Symbol&&"symbol"==typeof Symbol.iterator?function(t){return typeof t}:function(t){return t&&"function"==typeof Symbol&&t.constructor===Symbol&&t!==Symbol.prototype?"symbol":typeof t})(n)}function n(t,n){if(!(t instanceof n))throw new TypeError("Cannot call a class as a function")}function r(t,n){for(var r=0;r<n.length;r++){var e=n[r];e.enumerable=e.enumerable||!1,e.configurable=!0,"value"in e&&(e.writable=!0),Object.defineProperty(t,e.key,e)}}function e(t,n,e){return n&&r(t.prototype,n),e&&r(t,e),t}var i=1e-5,u=Math.abs;function o(t){return t}function a(t,n,r){var e=1-r;return 3*r*e*(t*e+n*r)+r*r*r}function l(){var t=arguments.length>0&&void 0!==arguments[0]?arguments[0]:0,n=arguments.length>1&&void 0!==arguments[1]?arguments[1]:0,r=arguments.length>2&&void 0!==arguments[2]?arguments[2]:1,e=arguments.length>3&&void 0!==arguments[3]?arguments[3]:1;return t<0||t>1||r<0||r>1?null:u(t-n)<=i&&u(r-e)<=i?o:function(o){if(o<=0)return t>0?o*n/t:0===n&&r>0?o*e/r:0;if(o>=1)return r<1?1+(o-1)*(e-1)/(r-1):1===r&&t<1?1+(o-1)*(n-1)/(t-1):1;for(var l,f=0,s=1;f<s;){var c=a(t,r,l=(f+s)/2);if(u(o-c)<i)break;c<o?f=l:s=l}return a(n,e,l)}}function f(){return 1}function s(t){return 1===t?1:0}function c(){var t=arguments.length>0&&void 0!==arguments[0]?arguments[0]:1,n=arguments.length>1&&void 0!==arguments[1]?arguments[1]:0;if(1===t){if(0===n)return s;if(1===n)return f}var r=1/t;return function(t){return t>=1?1:(t+=n*r)-t%r}}function v(t){var n=arguments.length>1&&void 0!==arguments[1]?arguments[1]:2;if(Number.isInteger(t))return t;var r=Math.pow(10,n);return Math.round(t*r)/r}var h=Math.PI/180;function y(t,n,r){return t>=.5?r:n}function d(t,n,r){return 0===t||n===r?n:t*(r-n)+n}function g(t,n,r){var e=d(t,n,r);return e<=0?0:e}function m(t,n,r){return 0===t?n:1===t?r:{x:d(t,n.x,r.x),y:d(t,n.y,r.y)}}function p(t,n,r){return 0===t?n:1===t?r:{x:g(t,n.x,r.x),y:g(t,n.y,r.y)}}function b(t,n,r){var e=function(t,n,r){return Math.round(d(t,n,r))}(t,n,r);return e<=0?0:e>=255?255:e}function w(t,n,r){return 0===t?n:1===t?r:{r:b(t,n.r,r.r),g:b(t,n.g,r.g),b:b(t,n.b,r.b),a:d(t,null==n.a?1:n.a,null==r.a?1:r.a)}}function A(t,n,r){if(0===t)return n;if(1===t)return r;var e=n.length;if(e!==r.length)return y(t,n,r);for(var i=[],u=0;u<e;u++)i.push(w(t,n[u],r[u]));return i}function x(t,n,r){var e=n.length;if(e!==r.length)return y(t,n,r);for(var i=new Array(e),u=0;u<e;u++)i[u]=d(t,n[u],r[u]);return i}function k(t,n){for(var r=[],e=0;e<t;e++)r.push(n);return r}function S(t,n){if(--n<=0)return t;var r=(t=Object.assign([],t)).length;do{for(var e=0;e<r;e++)t.push(t[e])}while(--n>0);return t}var _=6,M=/\.0+$/g;function I(t){return Number.isInteger(t)?t+"":t.toFixed(_).replace(M,"")}function E(t){var n=arguments.length>1&&void 0!==arguments[1]?arguments[1]:" ";return t&&t.length?t.map(I).join(n):""}function F(t){return I(t.x)+","+I(t.y)}function B(t){return t?null==t.a||t.a>=1?"rgb("+t.r+","+t.g+","+t.b+")":"rgba("+t.r+","+t.g+","+t.b+","+t.a+")":"transparent"}var j={f:null,i:p,u:function(t,n){return function(r){var e=n(r);t.setAttribute("rx",I(e.x)),t.setAttribute("ry",I(e.y))}}},q={f:null,i:function(t,n,r){return 0===t?n:1===t?r:{width:g(t,n.width,r.width),height:g(t,n.height,r.height)}},u:function(t,n){return function(r){var e=n(r);t.setAttribute("width",I(e.width)),t.setAttribute("height",I(e.height))}}},P=Math.sin,O=Math.cos,z=Math.acos,L=Math.asin,C=Math.tan,R=Math.atan2,T=Math.PI/180,V=180/Math.PI,D=Math.sqrt,N=function(){function t(){var r=arguments.length>0&&void 0!==arguments[0]?arguments[0]:1,e=arguments.length>1&&void 0!==arguments[1]?arguments[1]:0,i=arguments.length>2&&void 0!==arguments[2]?arguments[2]:0,u=arguments.length>3&&void 0!==arguments[3]?arguments[3]:1,o=arguments.length>4&&void 0!==arguments[4]?arguments[4]:0,a=arguments.length>5&&void 0!==arguments[5]?arguments[5]:0;n(this,t),this.m=[r,e,i,u,o,a],this.i=null,this.w=null,this.s=null}return e(t,[{key:"point",value:function(t,n){var r=this.m;return{x:r[0]*t+r[2]*n+r[4],y:r[1]*t+r[3]*n+r[5]}}},{key:"translateSelf",value:function(){var t=arguments.length>0&&void 0!==arguments[0]?arguments[0]:0,n=arguments.length>1&&void 0!==arguments[1]?arguments[1]:0;if(!t&&!n)return this;var r=this.m;return r[4]+=r[0]*t+r[2]*n,r[5]+=r[1]*t+r[3]*n,this.w=this.s=this.i=null,this}},{key:"rotateSelf",value:function(){var t=arguments.length>0&&void 0!==arguments[0]?arguments[0]:0;if(t%=360){var n=P(t*=T),r=O(t),e=this.m,i=e[0],u=e[1];e[0]=i*r+e[2]*n,e[1]=u*r+e[3]*n,e[2]=e[2]*r-i*n,e[3]=e[3]*r-u*n,this.w=this.s=this.i=null}return this}},{key:"scaleSelf",value:function(){var t=arguments.length>0&&void 0!==arguments[0]?arguments[0]:1,n=arguments.length>1&&void 0!==arguments[1]?arguments[1]:1;if(1!==t||1!==n){var r=this.m;r[0]*=t,r[1]*=t,r[2]*=n,r[3]*=n,this.w=this.s=this.i=null}return this}},{key:"skewSelf",value:function(t,n){if(n%=360,(t%=360)||n){var r=this.m,e=r[0],i=r[1],u=r[2],o=r[3];t&&(t=C(t*T),r[2]+=e*t,r[3]+=i*t),n&&(n=C(n*T),r[0]+=u*n,r[1]+=o*n),this.w=this.s=this.i=null}return this}},{key:"resetSelf",value:function(){var t=arguments.length>0&&void 0!==arguments[0]?arguments[0]:1,n=arguments.length>1&&void 0!==arguments[1]?arguments[1]:0,r=arguments.length>2&&void 0!==arguments[2]?arguments[2]:0,e=arguments.length>3&&void 0!==arguments[3]?arguments[3]:1,i=arguments.length>4&&void 0!==arguments[4]?arguments[4]:0,u=arguments.length>5&&void 0!==arguments[5]?arguments[5]:0,o=this.m;return o[0]=t,o[1]=n,o[2]=r,o[3]=e,o[4]=i,o[5]=u,this.w=this.s=this.i=null,this}},{key:"recomposeSelf",value:function(){var t=arguments.length>0&&void 0!==arguments[0]?arguments[0]:null,n=arguments.length>1&&void 0!==arguments[1]?arguments[1]:null,r=arguments.length>2&&void 0!==arguments[2]?arguments[2]:null,e=arguments.length>3&&void 0!==arguments[3]?arguments[3]:null,i=arguments.length>4&&void 0!==arguments[4]?arguments[4]:null;return this.isIdentity||this.resetSelf(),t&&(t.x||t.y)&&this.translateSelf(t.x,t.y),n&&this.rotateSelf(n),r&&(r.x&&this.skewSelf(r.x,0),r.y&&this.skewSelf(0,r.y)),!e||1===e.x&&1===e.y||this.scaleSelf(e.x,e.y),i&&(i.x||i.y)&&this.translateSelf(i.x,i.y),this}},{key:"decompose",value:function(){var t=arguments.length>0&&void 0!==arguments[0]?arguments[0]:0,n=arguments.length>1&&void 0!==arguments[1]?arguments[1]:0,r=this.m,e=r[0]*r[0]+r[1]*r[1],i=[[r[0],r[1]],[r[2],r[3]]],u=D(e);if(0===u)return{origin:{x:r[4],y:r[5]},translate:{x:t,y:n},scale:{x:0,y:0},skew:{x:0,y:0},rotate:0};i[0][0]/=u,i[0][1]/=u;var o=r[0]*r[3]-r[1]*r[2]<0;o&&(u=-u);var a=i[0][0]*i[1][0]+i[0][1]*i[1][1];i[1][0]-=i[0][0]*a,i[1][1]-=i[0][1]*a;var l=D(i[1][0]*i[1][0]+i[1][1]*i[1][1]);if(0===l)return{origin:{x:r[4],y:r[5]},translate:{x:t,y:n},scale:{x:u,y:0},skew:{x:0,y:0},rotate:0};i[1][0]/=l,i[1][1]/=l,a/=l;var f=0;return i[1][1]<0?(f=z(i[1][1])*V,i[0][1]<0&&(f=360-f)):f=L(i[0][1])*V,o&&(f=-f),a=R(a,D(i[0][0]*i[0][0]+i[0][1]*i[0][1]))*V,{origin:{x:r[4],y:r[5]},translate:{x:t,y:n},scale:{x:u,y:l},skew:{x:a,y:0},rotate:f}}},{key:"toString",value:function(){return null===this.s&&(this.s="matrix("+this.m.map($).join(" ")+")"),this.s}},{key:"determinant",get:function(){var t=this.m;return t[0]*t[3]-t[1]*t[2]}},{key:"isIdentity",get:function(){if(null===this.i){var t=this.m;this.i=1===t[0]&&0===t[1]&&0===t[2]&&1===t[3]&&0===t[4]&&0===t[5]}return this.i}}]),t}(),G=/\.0+$/;function $(t){return Number.isInteger(t)?t:t.toFixed(14).replace(G,"")}Object.freeze({M:2,L:2,Z:0,H:1,V:1,C:6,Q:4,T:2,S:4,A:7});function H(t,n,r){return t+(n-t)*r}function Q(t,n,r){var e=arguments.length>3&&void 0!==arguments[3]&&arguments[3],i={x:H(t.x,n.x,r),y:H(t.y,n.y,r)};return e&&(i.a=function(t,n){return Math.atan2(n.y-t.y,n.x-t.x)}(t,n)),i}function U(t,n,r,e){var i=1-e;return i*i*t+2*i*e*n+e*e*r}function Y(t,n,r,e){return 2*(1-e)*(n-t)+2*e*(r-n)}function Z(t,n,r,e){var i=arguments.length>4&&void 0!==arguments[4]&&arguments[4],u={x:U(t.x,n.x,r.x,e),y:U(t.y,n.y,r.y,e)};return i&&(u.a=function(t,n,r,e){return Math.atan2(Y(t.y,n.y,r.y,e),Y(t.x,n.x,r.x,e))}(t,n,r,e)),u}function J(t,n,r,e,i){var u=i*i;return i*u*(e-t+3*(n-r))+3*u*(t+r-2*n)+3*i*(n-t)+t}function K(t,n,r,e,i){var u=1-i;return 3*(u*u*(n-t)+2*u*i*(r-n)+i*i*(e-r))}function W(t,n,r,e,i){var u=arguments.length>5&&void 0!==arguments[5]&&arguments[5],o={x:J(t.x,n.x,r.x,e.x,i),y:J(t.y,n.y,r.y,e.y,i)};return u&&(o.a=function(t,n,r,e,i){return Math.atan2(K(t.y,n.y,r.y,e.y,i),K(t.x,n.x,r.x,e.x,i))}(t,n,r,e,i)),o}function X(t,n,r){var e,i=arguments.length>3&&void 0!==arguments[3]&&arguments[3];if(nt(n)){if(null!=(e=r).start&&!nt(e))return Z(n,r.start,r,t,i)}else if(nt(r)){if(n.end)return Z(n,n.end,r,t,i)}else{if(n.end)return r.start?W(n,n.end,r.start,r,t,i):Z(n,n.end,r,t,i);if(r.start)return Z(n,r.start,r,t,i)}return Q(n,r,t,i)}function tt(t,n,r){var e=X(t,n,r,!0);return e.a=function(t){return arguments.length>1&&void 0!==arguments[1]&&arguments[1]?t+Math.PI:t}(e.a)/h,e}function nt(t){return!t.type||"corner"===t.type}var rt=new N;var et={f:function(t){return t?t.join(" "):""},i:function(n,r,e){if(0===n)return r;if(1===n)return e;var i=r.length;if(i!==e.length)return y(n,r,e);for(var u,o=new Array(i),a=0;a<i;a++){if((u=t(r[a]))!==t(e[a]))return y(n,r,e);if("number"===u)o[a]=d(n,r[a],e[a]);else{if(r[a]!==e[a])return y(n,r,e);o[a]=r[a]}}return o}},it={f:null,i:x,u:function(t,n){return function(r){var e=n(r);t.setAttribute("x1",I(e[0])),t.setAttribute("y1",I(e[1])),t.setAttribute("x2",I(e[2])),t.setAttribute("y2",I(e[3]))}}},ut={f:I,i:d},ot={f:I,i:function(t,n,r){var e=d(t,n,r);return e<=0?0:e>=1?1:e}},at={f:E,i:function(t,n,r){var e,i,u,o=n.length,a=r.length;if(o!==a)if(0===o)n=k(o=a,0);else if(0===a)a=o,r=k(o,0);else{var l=(u=(e=o)*(i=a)/function(t,n){for(var r;n;)r=n,n=t%n,t=r;return t||1}(e,i))<0?-u:u;n=S(n,Math.floor(l/o)),r=S(r,Math.floor(l/a)),o=a=l}for(var f=[],s=0;s<o;s++)f.push(v(g(t,n[s],r[s]),6));return f}};function lt(t,n,r,e,i,u,o,a){return n=function(t,n,r){for(var e,i,u,o=t.length-1,a={},l=0;l<=o;l++)(e=t[l]).e&&(e.e=n(e.e)),e.v&&"g"===(i=e.v).t&&i.r&&(u=r.getElementById(i.r))&&(a[i.r]=u.querySelectorAll("stop"));return a}(t,e,a),function(e){var i,u=r(e,t,ft);return u?"c"===u.t?B(u.v):"g"===u.t?(n[u.r]&&function(t,n){for(var r=0,e=t.length;r<e;r++)t[r].setAttribute("stop-color",B(n[r]))}(n[u.r],u.v),(i=u.r)?"url(#"+i+")":"none"):"none":"none"}}function ft(t,n,r){if(0===t)return n;if(1===t)return r;if(n&&r){var e=n.t;if(e===r.t)switch(n.t){case"c":return{t:e,v:w(t,n.v,r.v)};case"g":if(n.r===r.r)return{t:e,v:A(t,n.v,r.v),r:n.r}}}return y(t,n,r)}var st={blur:p,brightness:g,contrast:g,"drop-shadow":function(t,n,r){return 0===t?n:1===t?r:{blur:p(t,n.blur,r.blur),offset:m(t,n.offset,r.offset),color:w(t,n.color,r.color)}},grayscale:g,"hue-rotate":d,invert:g,opacity:g,saturate:g,sepia:g};function ct(t,n,r){if(0===t)return n;if(1===t)return r;var e=n.length;if(e!==r.length)return y(t,n,r);for(var i,u=[],o=0;o<e;o++){if(n[o].type!==r[o].type)return n;if(!(i=st[n[o].type]))return y(t,n,r);u.push({type:n.type,value:i(t,n[o].value,r[o].value)})}return u}var vt={blur:function(t){return t?function(n){t.setAttribute("stdDeviation",F(n))}:null},brightness:function(t,n,r){return(t=yt(r,n))?function(n){n=I(n),t.map((function(t){return t.setAttribute("slope",n)}))}:null},contrast:function(t,n,r){return(t=yt(r,n))?function(n){var r=I((1-n)/2);n=I(n),t.map((function(t){t.setAttribute("slope",n),t.setAttribute("intercept",r)}))}:null},"drop-shadow":function(t,n,r){var e=r.getElementById(n+"-blur");if(!e)return null;var i=r.getElementById(n+"-offset");if(!i)return null;var u=r.getElementById(n+"-flood");return u?function(t){e.setAttribute("stdDeviation",F(t.blur)),i.setAttribute("dx",I(t.offset.x)),i.setAttribute("dy",I(t.offset.y)),u.setAttribute("flood-color",B(t.color))}:null},grayscale:function(t){return t?function(n){t.setAttribute("values",E(function(t){return[.2126+.7874*(t=1-t),.7152-.7152*t,.0722-.0722*t,0,0,.2126-.2126*t,.7152+.2848*t,.0722-.0722*t,0,0,.2126-.2126*t,.7152-.7152*t,.0722+.9278*t,0,0,0,0,0,1,0]}(n)))}:null},"hue-rotate":function(t){return t?function(n){return t.setAttribute("values",I(n))}:null},invert:function(t,n,r){return(t=yt(r,n))?function(n){n=I(n)+" "+I(1-n),t.map((function(t){return t.setAttribute("tableValues",n)}))}:null},opacity:function(t,n,r){return(t=r.getElementById(n+"-A"))?function(n){return t.setAttribute("tableValues","0 "+I(n))}:null},saturate:function(t){return t?function(n){return t.setAttribute("values",I(n))}:null},sepia:function(t){return t?function(n){return t.setAttribute("values",E(function(t){return[.393+.607*(t=1-t),.769-.769*t,.189-.189*t,0,0,.349-.349*t,.686+.314*t,.168-.168*t,0,0,.272-.272*t,.534-.534*t,.131+.869*t,0,0,0,0,0,1,0]}(n)))}:null}};var ht=["R","G","B"];function yt(t,n){var r=ht.map((function(r){return t.getElementById(n+"-"+r)||null}));return-1!==r.indexOf(null)?null:r}var dt={fill:lt,"fill-opacity":ot,stroke:lt,"stroke-opacity":ot,"stroke-width":ut,"stroke-dashoffset":{f:I,i:d},"stroke-dasharray":at,opacity:ot,transform:function(n,r,e,i){if(!(n=function(n,r){if(!n||"object"!==t(n))return null;var e=!1;for(var i in n)n.hasOwnProperty(i)&&(n[i]&&n[i].length?(n[i].forEach((function(t){t.e&&(t.e=r(t.e))})),e=!0):delete n[i]);return e?n:null}(n,i)))return null;var u=function(t,i,u){var o=arguments.length>3&&void 0!==arguments[3]?arguments[3]:null;return n[t]?e(i,n[t],u):r&&r[t]?r[t]:o};return r&&r.a&&n.o?function(t){var r=e(t,n.o,tt);return rt.recomposeSelf(r,u("r",t,d,0)+r.a,u("k",t,m),u("s",t,m),u("t",t,m)).toString()}:function(t){return rt.recomposeSelf(u("o",t,X,null),u("r",t,d,0),u("k",t,m),u("s",t,m),u("t",t,m)).toString()}},"#filter":function(t,n,r,e,i,u,o,a){if(!n.items||!t||!t.length)return null;var l=function(t,n){var r=(t=t.map((function(t){return t&&vt[t[0]]?(n.getElementById(t[1]),vt[t[0]](n.getElementById(t[1]),t[1],n)):null}))).length;return function(n){for(var e=0;e<r;e++)t[e]&&t[e](n[e].value)}}(n.items,a);return l?(t=function(t,n){return t.map((function(t){return t.e=n(t.e),t}))}(t,e),function(n){l(r(n,t,ct))}):null},"#line":it,points:{f:E,i:x},d:et,r:ut,"#size":q,"#radius":j,_:function(t,n){if(Array.isArray(t))for(var r=0;r<t.length;r++)this[t[r]]=n;else this[t]=n}},gt=function(){function t(r){n(this,t),this.list=r,this.length=r.length}return e(t,[{key:"setAttribute",value:function(t,n){for(var r=this.list,e=0;e<this.length;e++)r[e].setAttribute(t,n)}},{key:"removeAttribute",value:function(t){for(var n=this.list,r=0;r<this.length;r++)n[r].removeAttribute(t)}},{key:"style",value:function(t,n){for(var r=this.list,e=0;e<this.length;e++)r[e].style[t]=n}}]),t}(),mt=/-./g,pt=function(t,n){return n.toUpperCase()};function bt(t){return"function"==typeof t?t:y}function wt(t){return t?"function"==typeof t?t:Array.isArray(t)?function(t){var n=arguments.length>1&&void 0!==arguments[1]?arguments[1]:o;if(!Array.isArray(t))return n;switch(t.length){case 1:return c(t[0])||n;case 2:return c(t[0],t[1])||n;case 4:return l(t[0],t[1],t[2],t[3])||n}return n}(t,null):function(t,n){var r=arguments.length>2&&void 0!==arguments[2]?arguments[2]:o;switch(t){case"linear":return o;case"steps":return c(n.steps||1,n.jump||0)||r;case"bezier":case"cubic-bezier":return l(n.x1||0,n.y1||0,n.x2||0,n.y2||0)||r}return r}(t.type,t.value,null):null}function At(t,n,r){var e=arguments.length>3&&void 0!==arguments[3]&&arguments[3],i=n.length-1;if(t<=n[0].t)return e?[0,0,n[0].v]:n[0].v;if(t>=n[i].t)return e?[i,1,n[i].v]:n[i].v;var u,o=n[0],a=null;for(u=1;u<=i;u++){if(!(t>n[u].t)){a=n[u];break}o=n[u]}return null==a?e?[i,1,n[i].v]:n[i].v:o.t===a.t?e?[u,1,a.v]:a.v:(t=(t-o.t)/(a.t-o.t),o.e&&(t=o.e(t)),e?[u,t,r(t,o.v,a.v)]:r(t,o.v,a.v))}function xt(t,n){var r=arguments.length>2&&void 0!==arguments[2]?arguments[2]:null;return t&&t.length?"function"!=typeof n?null:("function"!=typeof r&&(r=null),function(e){var i=At(e,t,n);return null!=i&&r&&(i=r(i)),i}):null}function kt(t,n){return t.t-n.t}function St(n,r,e,i,u){var o,a="@"===e[0],l="#"===e[0],f=dt[e],s=y;switch(a?(o=e.substr(1),e=o.replace(mt,pt)):l&&(e=e.substr(1)),t(f)){case"function":if(s=f(i,u,At,wt,e,a,r,n),l)return s;break;case"string":s=xt(i,bt(f));break;case"object":if((s=xt(i,bt(f.i),f.f))&&"function"==typeof f.u)return f.u(r,s,e,a,n)}return s?function(t,n,r){if(arguments.length>3&&void 0!==arguments[3]&&arguments[3])return t instanceof gt?function(e){return t.style(n,r(e))}:function(e){return t.style[n]=r(e)};if(Array.isArray(n)){var e=n.length;return function(i){var u=r(i);if(null==u)for(var o=0;o<e;o++)t[o].removeAttribute(n);else for(var a=0;a<e;a++)t[a].setAttribute(n,u)}}return function(e){var i=r(e);null==i?t.removeAttribute(n):t.setAttribute(n,i)}}(r,e,s,a):null}function _t(n,r,e,i){if(!i||"object"!==t(i))return null;var u=null,o=null;return Array.isArray(i)?o=function(t){if(!t||!t.length)return null;for(var n=0;n<t.length;n++)t[n].e&&(t[n].e=wt(t[n].e));return t.sort(kt)}(i):(o=i.keys,u=i.data||null),o?St(n,r,e,o,u):null}function Mt(t,n,r){if(!r)return null;var e=[];for(var i in r)if(r.hasOwnProperty(i)){var u=_t(t,n,i,r[i]);u&&e.push(u)}return e.length?e:null}function It(t,n){if(!n.duration||n.duration<0)return null;var r=function(t,n){if(!n)return null;var r=[];if(Array.isArray(n))for(var e=n.length,i=0;i<e;i++){var u=n[i];if(2===u.length){var o=null;if("string"==typeof u[0])o=t.getElementById(u[0]);else if(Array.isArray(u[0])){o=[];for(var a=0;a<u[0].length;a++)if("string"==typeof u[0][a]){var l=t.getElementById(u[0][a]);l&&o.push(l)}o=o.length?1===o.length?o[0]:new gt(o):null}if(o){var f=Mt(t,o,u[1]);f&&(r=r.concat(f))}}}else for(var s in n)if(n.hasOwnProperty(s)){var c=t.getElementById(s);if(c){var v=Mt(t,c,n[s]);v&&(r=r.concat(v))}}return r.length?r:null}(t,n.elements);return r?function(t,n){var r=arguments.length>2&&void 0!==arguments[2]?arguments[2]:1/0,e=arguments.length>3&&void 0!==arguments[3]?arguments[3]:1,i=arguments.length>4&&void 0!==arguments[4]&&arguments[4],u=arguments.length>5&&void 0!==arguments[5]?arguments[5]:1,o=t.length,a=e>0?n:0;i&&r%2==0&&(a=n-a);var l=null;return function(f,s){var c=f%n,v=1+(f-c)/n;s*=e,i&&v%2==0&&(s=-s);var h=!1;if(v>r)c=a,h=!0,-1===u&&(c=e>0?0:n);else if(s<0&&(c=n-c),c===l)return!1;l=c;for(var y=0;y<o;y++)t[y](c);return h}}(r,n.duration,n.iterations||1/0,n.direction||1,!!n.alternate,n.fill||1):null}var Et=function(){function t(r){var e=arguments.length>1&&void 0!==arguments[1]?arguments[1]:{};n(this,t),this._id=0,this._running=!1,this._animations=r,this.direction=e.direction||1,this.speed=e.speed||1,this.fps=e.fps||100,this.offset=e.offset||0}return e(t,[{key:"_start",value:function(){var t=this,n=arguments.length>0&&void 0!==arguments[0]?arguments[0]:0,r=-1/0,e=null,i={},u=function u(o){t._running=!0,null==e&&(e=o);var a=Math.round((o-e+n)*t.speed),l=t.fps?1e3/t.fps:0;if(a>r+l){t.offset=a,r=a;for(var f=t._animations,s=f.length,c=0,v=0;v<s;v++)i[v]?c++:(i[v]=f[v](a,t.direction),i[v]&&c++);if(c===s)return void t._stop()}t._id=window.requestAnimationFrame(u)};this._id=window.requestAnimationFrame(u)}},{key:"_stop",value:function(){this._id&&window.cancelAnimationFrame(this._id),this._running=!1}},{key:"play",value:function(){this._running||this._start(this.offset)}},{key:"stop",value:function(){this._stop(),this.offset=0;var t=this.direction,n=this._animations;requestAnimationFrame((function(){for(var r=0;r<n.length;r++)n[r](0,t)}))}},{key:"restart",value:function(){this._stop(),this.offset=0,this._start()}},{key:"pause",value:function(){this._stop()}},{key:"reverse",value:function(){this.direction=-this.direction}}],[{key:"build",value:function(n){if(!(n=function(t){if(!t||!t.root||!Array.isArray(t.animations))return null;var n=window.document.getElementById(t.root);if(!n)return null;var r=t.animations.map((function(t){return It(n,t)})).filter((function(t){return!!t}));return r.length?{element:n,animations:r,options:t.options||void 0}:null}(n)))return null;var r=n.element,e=n.options||{},i=new t(n.animations,n.options);return function(t,n,r){var e=arguments.length>3&&void 0!==arguments[3]?arguments[3]:null;if("click"===r){return void n.addEventListener("click",(function r(){n.removeEventListener("click",r),t.play()}))}if("hover"===r)return n.addEventListener("mouseenter",(function(){return t.play()})),void n.addEventListener("mouseleave","freeze"===e?function(){return t.pause()}:function(){return t.stop()});t.play()}(i,r,e.start,e.hover),i}}]),t}();return function(){for(var t=0,n=["ms","moz","webkit","o"],r=0;r<n.length&&!window.requestAnimationFrame;++r)window.requestAnimationFrame=window[n[r]+"RequestAnimationFrame"],window.cancelAnimationFrame=window[n[r]+"CancelAnimationFrame"]||window[n[r]+"CancelRequestAnimationFrame"];window.requestAnimationFrame||(window.requestAnimationFrame=function(n){var r=Date.now(),e=Math.max(0,16-(r-t)),i=window.setTimeout((function(){n(r+e)}),e);return t=r+e,i},window.cancelAnimationFrame=window.clearTimeout)}(),Et}));
__SVGATOR_PLAYER__.build({"root":"ecyblu4tdymt1","animations":[{"duration":18000,"direction":1,"iterations":0,"fill":1,"alternate":false,"elements":{"ecyblu4tdymt4":{"d":[{"t":0,"v":["M",484.4,248.82,"C",482.79999999999995,340.23,417.21999999999997,479.15,308.4,479.15,"C",261.97999999999996,479.15,220.60999999999996,454.54999999999995,199.51,416.75,"C",172.25,367.92,130.71999999999997,328.93,80.74999999999999,303.43,"C",41.179999999999986,283.24,15.549999999999983,240.51,15.549999999999983,192.94,"C",15.549999999999983,85.92999999999999,150.96999999999997,21.189999999999998,244.07,20.849999999999994,"C",383.25,20.35,486.82,110.78,484.4,248.82,"Z"],"e":[0.77,0,0.175,1]},{"t":3000,"v":["M",484.4,262.33000000000004,"C",480.96176399999996,416.24000000000007,354.72853,480.988236,233.95999999999998,479.15,"C",109.41499999999996,475.4735289999999,12.752941,387.5402939999999,15.549999999999983,308.38,"C",18.620881999999987,224.62353,70.65014699999996,204.72794200000013,102.481618,182.904412,"C",135.52191100000002,161.79529399999998,161.09205899999998,144.07735300000002,184.06999999999996,108.455882,"C",208.88617599999995,69.460587,232.87499999999994,21.190000000000005,310.34999999999997,20.85,"C",399.897648,20.35000000000001,485.900883,137.15764700000005,484.4,262.33000000000004,"Z"],"e":[0.77,0,0.175,1]},{"t":6000,"v":["M",484.45,301.68,"C",482.89049099999994,414.258004,354.72853,480.988236,233.95999999999998,479.15,"C",94.38518399999997,472.65543899999994,14.640121980000016,368.85419900000005,15.55845398,251.18,"C",18.629335980000004,167.42353,78.67072099999997,26.704350000000137,187.53,20.85,"C",256.26610700000003,24.16433299999998,280.15333300000003,53.125318000000114,305.01,88.895475,"C",330.7655379999998,126.92798899999983,355.04772599999995,163.79845700000007,410.917365,190.70000000000007,"C",449.73938300000003,210.86599800000008,484.07215600000006,254.47482000000002,484.45,301.68,"Z"],"e":[0.77,0,0.175,1]},{"t":9000,"v":["M",327.87,376.799262,"C",288.08031199999994,427.623316,285.8900000000001,470.615553,188.65999999999997,479.15,"C",67.55485958591825,471.87425204837376,13.796816490702774,319.892041642338,15.55845398,228.08000000000004,"C",19.568699980000005,123.65753200000003,107.67063600000006,19.189441000000134,260.68000000000006,20.849999999999994,"C",404.5651900000001,29.800512999999977,490.23198199999996,114.64935300000019,484.45,203.33000000000007,"C",479.4252069999999,255.124068,457.7007489999999,281.205574,409.978001,308.38,"C",383.0445720000001,325.72790699999996,351.6098360000001,345.6117640000001,327.87,376.799262,"Z"],"e":[0.77,0,0.175,1]},{"t":11800,"v":["M",484.45,301.68,"C",482.89049099999994,414.258004,354.72853,480.988236,233.95999999999998,479.15,"C",94.38518399999997,472.65543899999994,14.640121980000016,368.85419900000005,15.55845398,251.18,"C",18.629335980000004,167.42353,78.67072099999997,26.704350000000137,187.53,20.85,"C",256.26610700000003,24.16433299999998,280.15333300000003,53.125318000000114,305.01,88.895475,"C",330.7655379999998,126.92798899999983,355.04772599999995,163.79845700000007,410.917365,190.70000000000007,"C",449.73938300000003,210.86599800000008,484.07215600000006,254.47482000000002,484.45,301.68,"Z"],"e":[0.77,0,0.175,1]},{"t":15000,"v":["M",484.4,262.33000000000004,"C",480.96176399999996,416.24000000000007,354.72853,480.988236,233.95999999999998,479.15,"C",109.41499999999996,475.4735289999999,12.752941,387.5402939999999,15.549999999999983,308.38,"C",18.620881999999987,224.62353,70.65014699999996,204.72794200000013,102.481618,182.904412,"C",135.52191100000002,161.79529399999998,161.09205899999998,144.07735300000002,184.06999999999996,108.455882,"C",208.88617599999995,69.460587,232.87499999999994,21.190000000000005,310.34999999999997,20.85,"C",399.897648,20.35000000000001,485.900883,137.15764700000005,484.4,262.33000000000004,"Z"],"e":[0.77,0,0.175,1]},{"t":18000,"v":["M",484.4,248.82,"C",482.79999999999995,340.23,417.21999999999997,479.15,308.4,479.15,"C",261.97999999999996,479.15,220.60999999999996,454.54999999999995,199.51,416.75,"C",172.25,367.92,130.71999999999997,328.93,80.74999999999999,303.43,"C",41.179999999999986,283.24,15.549999999999983,240.51,15.549999999999983,192.94,"C",15.549999999999983,85.92999999999999,150.96999999999997,21.189999999999998,244.07,20.849999999999994,"C",383.25,20.35,486.82,110.78,484.4,248.82,"Z"],"e":[0.77,0,0.175,1]}]},"ecyblu4tdymt6":{"transform":{"keys":{"o":[{"t":0,"v":{"x":0,"y":0,"type":"corner"},"e":[0.77,0,0.175,1]},{"t":3000,"v":{"x":-8,"y":70,"type":"corner"},"e":[0.77,0,0.175,1]},{"t":6000,"v":{"x":-23,"y":70,"type":"corner"},"e":[0.77,0,0.175,1]},{"t":9000,"v":{"x":-70,"y":0,"type":"corner"},"e":[0.77,0,0.175,1]},{"t":11800,"v":{"x":-23,"y":70,"type":"corner"},"e":[0.77,0,0.175,1]},{"t":15000,"v":{"x":-8,"y":70,"type":"corner"},"e":[0.77,0,0.175,1]},{"t":18000,"v":{"x":0,"y":0,"type":"corner"},"e":[0.77,0,0.175,1]}]}}},"ecyblu4tdymt10":{"transform":{"keys":{"o":[{"t":0,"v":{"x":0,"y":0,"type":"corner"},"e":[0.77,0,0.175,1]},{"t":3000,"v":{"x":106,"y":70,"type":"corner"},"e":[0.77,0,0.175,1]},{"t":6000,"v":{"x":-24,"y":70,"type":"corner"},"e":[0.77,0,0.175,1]},{"t":9000,"v":{"x":43,"y":0,"type":"corner"},"e":[0.77,0,0.175,1]},{"t":11800,"v":{"x":-24,"y":70,"type":"corner"},"e":[0.77,0,0.175,1]},{"t":15000,"v":{"x":106,"y":70,"type":"corner"},"e":[0.77,0,0.175,1]},{"t":18000,"v":{"x":0,"y":0,"type":"corner"},"e":[0.77,0,0.175,1]}]}}}}}],"options":{"start":"load","hover":"freeze"}})]]></script></svg>