<svg xmlns="http://www.w3.org/2000/svg" width="1976.382" height="1994.197" viewBox="0 0 1976.382 1994.197"><g transform="translate(169.14 -586.691)" opacity="0.25"><g transform="matrix(-0.391, 0.921, -0.921, -0.391, 1805.276, 1172.507)"><path d="M1527.873,743.511c-2.989,165.142-69.743,377.609-189.3,534.033-96.644,126.534-227.91,216.7-387.572,216.7a421.6,421.6,0,0,1-209.727-55.3c-62.769-36.117-115.076-88.175-150.446-151.193A870.6,870.6,0,0,0,431.66,1082.513,918.648,918.648,0,0,0,215.955,929.825C150.2,896.2,95.9,843.892,58.285,780.127,20.923,716.86,0,642.633,0,564.172,0,405.506,89.67,275.485,215.955,180.336,369.14,64.761,577.872.5,744.757,0c7.223,0,14.447,0,21.67.249C984.374,3.985,1174.175,76.967,1309.676,203c136,126.285,217.449,305.873,218.2,522.077Z" transform="translate(0 0)" fill="none" stroke="#131b36" stroke-miterlimit="10" stroke-width="3"/><path d="M928.331,451.338C926.587,551.469,885.987,680.244,813.5,775.145,754.471,852.36,674.516,907.408,576.626,907.408A258.367,258.367,0,0,1,448.1,873.532a245.181,245.181,0,0,1-92.41-92.908,512.84,512.84,0,0,0-94.651-121.8,543.032,543.032,0,0,0-128.278-90.666c-40.351-20.674-73.728-52.805-96.893-91.911A260.424,260.424,0,0,1,0,343.983c0-97.142,54.8-176.6,131.765-234.636C224.922,39.106,351.455.249,452.583,0h13.2C597.8,2.242,713.123,46.578,795.321,123.3c82.7,76.717,132.263,185.816,132.761,317.331A50.521,50.521,0,0,1,928.331,451.338Z" transform="translate(177.845 334.269)" fill="none" stroke="#131b36" stroke-miterlimit="10" stroke-width="3"/><path d="M777.138,378.855c-1.495,83.692-35.37,191.544-95.9,271-49.567,64.761-116.82,111.091-199.017,111.091a215.608,215.608,0,0,1-108.1-28.644,207.331,207.331,0,0,1-77.714-78.212,430.437,430.437,0,0,0-78.461-101.128A451.561,451.561,0,0,0,111.589,477.74C77.465,460.3,49.567,433.4,30.139,400.276A219.815,219.815,0,0,1,0,288.936c0-81.7,45.831-148.453,110.593-197.273h0C188.555,32.879,294.416.5,379.1,0h10.96C500.656,1.993,597.051,39.106,666.047,103.12,735.292,167.384,776.889,258.8,777.138,368.891Z" transform="translate(456.07 285.698)" fill="none" stroke="#131b36" stroke-miterlimit="10" stroke-width="3"/><path d="M1228.226,597.549c-2.242,132.512-56.044,303.383-152.189,428.92-77.963,101.875-183.574,174.607-312.1,174.607a341.286,341.286,0,0,1-169.127-44.586C544,1127.348,501.9,1085.5,473.506,1034.44A695.393,695.393,0,0,0,346.474,870.793,726,726,0,0,0,174.358,749.24c-53.055-27.15-96.893-69.494-127.281-120.8A341.883,341.883,0,0,1,0,454.327C0,326.547,72.234,221.684,173.86,144.966h0C297.155,52.058,464.788.5,598.795,0H616.23c174.856,2.989,327.544,61.772,436.393,163.149,109.347,101.626,174.856,245.844,175.354,419.7A144.734,144.734,0,0,1,1228.226,597.549Z" transform="translate(230.401 106.358)" fill="none" stroke="#131b36" stroke-miterlimit="10" stroke-width="3"/></g></g></svg>